# xmcd CD database file
#
# Track frame offsets:
#	150
#	17985
#	35575
#	53732
#	70527
#	87785
#	101807
#	120122
#	135662
#	150735
#	165595
#	180862
#
# Disc length: 2641 seconds
#
# Revision: 0
# Processed by: cddbd v1.5.2PL0 Copyright (c) Steve Scherf et al.
# Submitted via: CDex 1.70beta2
#
DISCID=8a0a4f0c
DTITLE=Eddie Higgins - Sweet Lorraine
DYEAR=1900
DGENRE=Jazz
TTITLE0=Teach Me Tonight
TTITLE1=Sweet Lorraine
TTITLE2=Ruby
TTITLE3=Three Little Words
TTITLE4=Someone To Watch Over Me
TTITLE5=The Song Is You
TTITLE6=Sometimes I'm Happy
TTITLE7=Route 66
TTITLE8=Rosetta
TTITLE9=Somebody Loves Me
TTITLE10=Take The A Train
TTITLE11=These Foolish Things
EXTD=
EXTT0=
EXTT1=
EXTT2=
EXTT3=
EXTT4=
EXTT5=
EXTT6=
EXTT7=
EXTT8=
EXTT9=
EXTT10=
EXTT11=
PLAYORDER=
